<svg xmlns="http://www.w3.org/2000/svg" version="1.1" xmlns:xlink="http://www.w3.org/1999/xlink" xmlns:svgjs="http://svgjs.dev/svgjs" width="1500" height="1888" viewBox="0 0 1500 1888"><g transform="matrix(1,0,0,1,-0.742516666588017,-3.0451612903226533)"><svg viewBox="0 0 197 248" data-background-color="#ffffff" preserveAspectRatio="xMidYMid meet" height="1888" width="1500" xmlns="http://www.w3.org/2000/svg" xmlns:xlink="http://www.w3.org/1999/xlink"><g id="tight-bounds" transform="matrix(1,0,0,1,0.09767412326078784,0.4000000000000057)"><svg viewBox="0 0 196.80480868786063 247.2" height="247.2" width="196.80480868786063"><g><svg viewBox="0 0 268.89059438362926 337.74456719224037" height="247.2" width="196.80480868786063"><g><svg viewBox="0 0 268.89059438362926 337.74456719224037" height="337.74456719224037" width="268.89059438362926"><g id="textblocktransform"><svg viewBox="0 0 268.89059438362926 337.74456719224037" height="337.74456719224037" width="268.89059438362926" id="textblock"><g><svg viewBox="0 0 268.89059438362926 245.672304" height="245.672304" width="268.89059438362926"><path d="M268.261 52.692C266.997 27.191 263.394 20.102 263.394 20.102 252.333-6.164 238.529-0.502 226.128 3.272 204.234 3.425 182.428 9.035 160.584 12.044 114.735 12.503 68.493 4.955 22.872 23.57 18.586 29.282-4.446 24.692 0.762 55.956 2.127 68.961 7.108 83.395 6.956 95.329 7.639 97.42 8.587 92.626 8.992 95.635 10.407 103.744 12.721 99.919 14.617 104.713 11.975 117.515 13.871 128.174 15.679 139.343 12.493 142.25 8.41 140.873 6.577 150.513 6.388 157.5 5.364 156.174 4.239 155.868 3.417 155.664 1.761 156.429 2.039 158.622 2.987 166.119-1.083 170.454 1.47 177.798-0.287 185.755 2.684 192.64 2.279 201.259 2.229 202.993 2.507 204.472 2.949 204.88 4.909 207.073 2.052 211.357 2.355 215.998 22.454 247.721 44.26 225.791 64.853 240.377 70.2 230.177 66.18 243.998 68.316 241.856 69.985 239.357 71.199 249.71 73.082 243.845 73.373 242.162 72.93 238.184 73.967 238.949 74.511 239.357 74.991 239.255 75.067 236.909 75.181 233.39 74.182 235.583 73.916 233.747 76.786 224.465 76.078 246.548 78.771 245.63 78.644 242.927 77.86 239.051 79.466 239.561 81.059 235.685 81.109 232.472 82.525 241.193 82.576 243.08 82.828 244.406 83.233 245.324 87.657 235.838 92.056 248.69 96.696 244.406 99.54 239.714 102.27 246.956 105.153 245.171 106.164 243.743 107.188 241.193 108.161 245.477 120.082 246.395 132.786 242.57 144.087 245.63 174.287 239.918 206.56 247.976 238.403 240.428 245.912 237.521 253.711 233.39 261.03 230.075 261.03 230.075 266.959 220.997 266.959 180.196S268.223 144.495 268.413 112.007C268.602 79.519 269.487 78.193 268.223 52.692Z" opacity="1" fill="#556970" data-fill-palette-color="tertiary"></path><g transform="matrix(1,0,0,1,55.76832,26.068561146666667)"><svg width="157.35395438362926" viewBox="4.116669928128 -36.272092896676995 32.604606386019995 40.09729289667699" height="193.53518170666666" data-palette-color="#ffffff"><path d="M4.85 3.1L4.85 3.1Q4.35 2.55 4.2 2.18 4.05 1.8 4.17 1.28 4.3 0.75 4.55-0.2L4.55-0.2Q4.95-1.8 5.43-2.88 5.9-3.95 6.38-5.13 6.85-6.3 7.2-8.15L7.2-8.15Q8-10 8.63-11.65 9.25-13.3 9.6-14.35 9.95-15.4 9.95-15.4L9.95-15.4Q10-15.6 10.4-16.45 10.8-17.3 11.43-18.53 12.05-19.75 12.6-21L12.6-21Q13.45-23.4 13.98-25.13 14.5-26.85 15.05-28.25 15.6-29.65 16.5-31L16.5-31Q17.1-32.05 17.9-32.35 18.7-32.65 19.43-32.33 20.15-32 20.45-31L20.45-31Q20.7-30.5 20.88-29.8 21.05-29.1 21.2-27.78 21.35-26.45 21.4-24.05L21.4-24.05Q21.5-21.2 21.45-18.43 21.4-15.65 21.48-13.3 21.55-10.95 22-9.3L22-9.3Q22.15-8.4 22.43-7.13 22.7-5.85 23.03-4.6 23.35-3.35 23.68-2.5 24-1.65 24.2-1.65L24.2-1.65Q24.45-1.65 24.88-2.3 25.3-2.95 25.98-4.65 26.65-6.35 27.6-9.47 28.55-12.6 29.75-17.5L29.75-17.5Q30-18.35 30.43-20.25 30.85-22.15 31.05-24.1L31.05-24.1Q31.4-25.35 31.75-26.85 32.1-28.35 32.38-29.5 32.65-30.65 32.65-30.8L32.65-30.8Q32.65-31.15 32.68-31.4 32.7-31.65 32.65-31.9L32.65-31.9Q32.9-31.9 33.1-32.58 33.3-33.25 33.3-33.75L33.3-33.75Q33.3-34.6 33.52-35.13 33.75-35.65 34-35.9L34-35.9Q34.15-36.3 34.75-36.27 35.35-36.25 35.95-35.95 36.55-35.65 36.7-35.15L36.7-35.15Q36.8-34.6 36.43-32.68 36.05-30.75 35.3-27.5L35.3-27.5Q35.3-26.95 35-25.7 34.7-24.45 34.38-23.05 34.05-21.65 33.9-20.65L33.9-20.65Q33.7-19.35 33.45-18.23 33.2-17.1 32.95-17.15L32.95-17.15Q31.65-11.5 30.23-7.53 28.8-3.55 27.7-1.05L27.7-1.05Q26.5 1.7 25.08 2.27 23.65 2.85 22.05 0.8L22.05 0.8Q21.1-0.5 20.55-1.78 20-3.05 19.65-4.78 19.3-6.5 18.8-9.05L18.8-9.05Q18.05-11.1 17.98-13.2 17.9-15.3 18.1-17.53 18.3-19.75 18.4-22.15L18.4-22.15Q18.35-24.55 18.2-25.35 18.05-26.15 17.63-25.28 17.2-24.4 16.25-21.75L16.25-21.75Q15.9-20.8 15.33-19.45 14.75-18.1 14.2-16.78 13.65-15.45 13.25-14.48 12.85-13.5 12.75-13.25L12.75-13.25Q12.45-12.65 12.05-11.68 11.65-10.7 11.4-9.6L11.4-9.6Q9.6-4.9 8.72-2.1 7.85 0.7 7.45 1.8L7.45 1.8Q6.95 3.2 6.4 3.68 5.85 4.15 4.85 3.1Z" opacity="1" transform="matrix(1,0,0,1,0,0)" fill="#ffffff" class="wordmark-text-0" data-fill-palette-color="quaternary" id="text-0"></path></svg></g></svg></g><g transform="matrix(1,0,0,1,51.35810352727319,291.361315556583)"><svg viewBox="0 0 166.1743873290829 46.38325163565733" height="46.38325163565733" width="166.1743873290829"><g transform="matrix(1,0,0,1,0,0)"><svg width="166.1743873290829" viewBox="2.35 -27.5 107.29 29.95" height="46.38325163565733" data-palette-color="#556970"><path d="M16.05-24.85L19.1-8.6Q20.8-18.25 20.8-24.7L20.8-24.7Q20.8-25.2 20.8-25.6L20.8-25.6 20.7-27.5Q26.05-25.15 29.8-24.3L29.8-24.3Q29.2-18.1 28.08-12.13 26.95-6.15 26.1-3.3L26.1-3.3 25.3-0.45Q21.9-0.45 18.15 0.75L18.15 0.75 16.9 1.15 12.7-13.95Q11.25-8.5 9.6 1.25L9.6 1.25Q7.65 0.55 5.55-0.78 3.45-2.1 2.35-3.4L2.35-3.4Q2.9-8.25 4.08-13.1 5.25-17.95 6.2-20.4L6.2-20.4 7.1-22.8Q10.9-24.2 16.05-24.85L16.05-24.85ZM48.4-8.35L48.4-8.35Q48.4-4.15 49.4-1L49.4-1 45.05 1Q41.9 0.25 41.25-3.1L41.25-3.1Q39.95-1.6 38.37-0.55 36.8 0.5 35.75 0.5L35.75 0.5Q33.4 0.5 31.47-1.6 29.55-3.7 29.55-5.6 29.55-7.5 30.35-9.63 31.15-11.75 32.6-13.73 34.05-15.7 36.5-16.98 38.95-18.25 41.3-18.25 43.65-18.25 44.7-17.5L44.7-17.5 46-20.1Q47.75-19.45 49.1-18.32 50.45-17.2 50.95-16.4L50.95-16.4 51.45-15.6Q50.7-12.75 48.95-10L48.95-10 48.4-9.1Q48.4-8.7 48.4-8.35ZM36.8-4.45L36.8-4.45Q38.9-4.45 41.25-6.9L41.25-6.9Q41.85-10.95 43.85-15.55L43.85-15.55Q40.05-13.45 38.15-10.1L38.15-10.1Q36.6-7.35 36.6-5.35L36.6-5.35Q36.6-4.9 36.7-4.45L36.7-4.45Q36.75-4.45 36.8-4.45ZM63.25-20.4L63.25-20.4Q60.8-16.35 60.8-11.25L60.8-11.25Q60.8-10.6 60.87-8.93 60.95-7.25 61.75-4.45L61.75-4.45Q63.55-7.05 64.75-10.25 65.95-13.45 66.25-15.35L66.25-15.35 66.55-17.25Q67.95-17.1 69.9-16.15 71.84-15.2 72.84-14.05L72.84-14.05Q72.84-13.3 72.47-11.8 72.09-10.3 71.57-9.08 71.05-7.85 69.9-6.28 68.75-4.7 67.22-3.45 65.7-2.2 63.22-1.13 60.75-0.05 57.7 0.4L57.7 0.4Q55.75-1.55 54.62-4 53.5-6.45 53.25-8.5 53-10.55 53-11.5L53-11.5Q53-14.35 53.3-15.6L53.3-15.6 53.5-16.65Q53.9-17 54.62-17.57 55.35-18.15 57.87-19.18 60.4-20.2 63.25-20.4ZM91.54-8.35L91.54-8.35Q91.54-4.15 92.54-1L92.54-1 88.19 1Q85.04 0.25 84.39-3.1L84.39-3.1Q83.09-1.6 81.52-0.55 79.94 0.5 78.89 0.5L78.89 0.5Q76.54 0.5 74.62-1.6 72.69-3.7 72.69-5.6 72.69-7.5 73.49-9.63 74.29-11.75 75.74-13.73 77.19-15.7 79.64-16.98 82.09-18.25 84.44-18.25 86.79-18.25 87.84-17.5L87.84-17.5 89.14-20.1Q90.89-19.45 92.24-18.32 93.59-17.2 94.09-16.4L94.09-16.4 94.59-15.6Q93.84-12.75 92.09-10L92.09-10 91.54-9.1Q91.54-8.7 91.54-8.35ZM79.94-4.45L79.94-4.45Q82.04-4.45 84.39-6.9L84.39-6.9Q84.99-10.95 86.99-15.55L86.99-15.55Q83.19-13.45 81.29-10.1L81.29-10.1Q79.74-7.35 79.74-5.35L79.74-5.35Q79.74-4.9 79.84-4.45L79.84-4.45Q79.89-4.45 79.94-4.45ZM103.04 0.85L103.04 0.85 103.04 2.45Q97.54 0.2 95.19-2.4L95.19-2.4Q95.59-6.8 96.62-12.15 97.64-17.5 98.44-20.65L98.44-20.65 99.24-23.8Q101.49-25.15 104.09-26.03 106.69-26.9 108.14-27.1L108.14-27.1 109.64-27.3Q107.69-23.1 106.29-18.48 104.89-13.85 104.29-10.3L104.29-10.3Q103.04-2.85 103.04 0.85Z" opacity="1" transform="matrix(1,0,0,1,0,0)" fill="#556970" class="slogan-text-1" data-fill-palette-color="secondary" id="text-1"></path></svg></g></svg></g></svg></g></svg></g><g></g></svg></g><defs></defs></svg><rect width="196.80480868786063" height="247.2" fill="none" stroke="none" visibility="hidden"></rect></g></svg></g></svg>